<svg data-name="Iconly/Bold/Chat" xmlns="http://www.w3.org/2000/svg" width="24" height="24" viewBox="0 0 24 24">
    <path data-name="Chat" d="M10 20a9.955 9.955 0 0 1-4.92-1.3 2.2 2.2 0 0 0-1.107-.424 1.213 1.213 0 0 0-.383.063l-2.02.6a.754.754 0 0 1-.226.036.62.62 0 0 1-.5-.239.647.647 0 0 1-.094-.578l.67-2.244a1.046 1.046 0 0 0-.07-.9 10.566 10.566 0 0 1-1.35-5 10.158 10.158 0 0 1 2.831-6.982A9.89 9.89 0 0 1 10.02 0a9.865 9.865 0 0 1 7.12 2.994 10.058 10.058 0 0 1 2.1 3.182A9.89 9.89 0 0 1 20 9.985a10.138 10.138 0 0 1-.865 4.172 9.6 9.6 0 0 1-2.275 3.153A10.245 10.245 0 0 1 10 20zm4.59-11.257a1.282 1.282 0 1 0 1.28 1.282 1.282 1.282 0 0 0-1.28-1.282zm-4.629 0A1.268 1.268 0 0 0 8.7 10.015a1.28 1.28 0 1 0 1.28-1.272h-.019zm-4.591 0a1.282 1.282 0 1 0 1.28 1.282 1.283 1.283 0 0 0-1.28-1.282z" style="fill:#fff" transform="translate(2 2)"/>
</svg>
